<svg width="40" height="28" viewBox="0 0 40 28" fill="none" xmlns="http://www.w3.org/2000/svg">
<path d="M38.3 2.69818C37.215 0.733091 36.0375 0.371636 33.64 0.234182C31.245 0.0687273 25.2225 0 20.005 0C14.7775 0 8.7525 0.0687275 6.36 0.231637C3.9675 0.371637 2.7875 0.730545 1.6925 2.69818C0.575 4.66073 0 8.04109 0 13.9924C0 13.9975 0 14 0 14C0 14.0051 0 14.0076 0 14.0076V14.0127C0 19.9385 0.575 23.3444 1.6925 25.2865C2.7875 27.2516 3.965 27.608 6.3575 27.7735C8.7525 27.916 14.7775 28 20.005 28C25.2225 28 31.245 27.916 33.6425 27.776C36.04 27.6105 37.2175 27.2542 38.3025 25.2891C39.43 23.3469 40 19.9411 40 14.0153C40 14.0153 40 14.0076 40 14.0025C40 14.0025 40 13.9975 40 13.9949C40 8.04109 39.43 4.66073 38.3 2.69818ZM15 21.6364V6.36364L27.5 14L15 21.6364Z" fill="black"/>
<path d="M38.3 2.69818C37.215 0.733091 36.0375 0.371636 33.64 0.234182C31.245 0.0687273 25.2225 0 20.005 0C14.7775 0 8.7525 0.0687275 6.36 0.231637C3.9675 0.371637 2.7875 0.730545 1.6925 2.69818C0.575 4.66073 0 8.04109 0 13.9924C0 13.9975 0 14 0 14C0 14.0051 0 14.0076 0 14.0076V14.0127C0 19.9385 0.575 23.3444 1.6925 25.2865C2.7875 27.2516 3.965 27.608 6.3575 27.7735C8.7525 27.916 14.7775 28 20.005 28C25.2225 28 31.245 27.916 33.6425 27.776C36.04 27.6105 37.2175 27.2542 38.3025 25.2891C39.43 23.3469 40 19.9411 40 14.0153C40 14.0153 40 14.0076 40 14.0025C40 14.0025 40 13.9975 40 13.9949C40 8.04109 39.43 4.66073 38.3 2.69818ZM15 21.6364V6.36364L27.5 14L15 21.6364Z" fill="#C7D3BD"/>
<path d="M38.3 2.69818C37.215 0.733091 36.0375 0.371636 33.64 0.234182C31.245 0.0687273 25.2225 0 20.005 0C14.7775 0 8.7525 0.0687275 6.36 0.231637C3.9675 0.371637 2.7875 0.730545 1.6925 2.69818C0.575 4.66073 0 8.04109 0 13.9924C0 13.9975 0 14 0 14C0 14.0051 0 14.0076 0 14.0076V14.0127C0 19.9385 0.575 23.3444 1.6925 25.2865C2.7875 27.2516 3.965 27.608 6.3575 27.7735C8.7525 27.916 14.7775 28 20.005 28C25.2225 28 31.245 27.916 33.6425 27.776C36.04 27.6105 37.2175 27.2542 38.3025 25.2891C39.43 23.3469 40 19.9411 40 14.0153C40 14.0153 40 14.0076 40 14.0025C40 14.0025 40 13.9975 40 13.9949C40 8.04109 39.43 4.66073 38.3 2.69818ZM15 21.6364V6.36364L27.5 14L15 21.6364Z" fill="#6D6E65"/>
<path d="M38.3 2.69818C37.215 0.733091 36.0375 0.371636 33.64 0.234182C31.245 0.0687273 25.2225 0 20.005 0C14.7775 0 8.7525 0.0687275 6.36 0.231637C3.9675 0.371637 2.7875 0.730545 1.6925 2.69818C0.575 4.66073 0 8.04109 0 13.9924C0 13.9975 0 14 0 14C0 14.0051 0 14.0076 0 14.0076V14.0127C0 19.9385 0.575 23.3444 1.6925 25.2865C2.7875 27.2516 3.965 27.608 6.3575 27.7735C8.7525 27.916 14.7775 28 20.005 28C25.2225 28 31.245 27.916 33.6425 27.776C36.04 27.6105 37.2175 27.2542 38.3025 25.2891C39.43 23.3469 40 19.9411 40 14.0153C40 14.0153 40 14.0076 40 14.0025C40 14.0025 40 13.9975 40 13.9949C40 8.04109 39.43 4.66073 38.3 2.69818ZM15 21.6364V6.36364L27.5 14L15 21.6364Z" fill="#48473C"/>
</svg>
